<svg width="100" height="100" viewBox="0 0 100 100" xmlns="http://www.w3.org/2000/svg" role="img" aria-label="Magdalene Medza">
  <defs>
    <linearGradient id="g" x1="0" y1="0" x2="1" y2="1">
      <stop offset="0" stop-color="#f2e08f"/>
      <stop offset="0.5" stop-color="#cfa24a"/>
      <stop offset="1" stop-color="#9c7726"/>
    </linearGradient>
  </defs>
  <circle cx="50" cy="50" r="49" fill="#140b12"/>
  <circle cx="50" cy="50" r="49" fill="none" stroke="#cfa24a" stroke-width="1.5" opacity="0.6"/>
  <g fill="none" stroke="url(#g)" stroke-width="2.1" stroke-linecap="round" stroke-linejoin="round">
    <path d="M50 15 C58 24 58 37 50 45 C42 37 42 24 50 15 Z"/>
    <path d="M33 26 C44 30 49 40 47 51 C36 47 31 37 33 26 Z"/>
    <path d="M67 26 C56 30 51 40 53 51 C64 47 69 37 67 26 Z"/>
  </g>
  <path fill="url(#g)" d="M46 22 C58 22 66 30 66 41 C70 45 72 49 67 53 C70 56 69 60 64 62 C67 65 65 71 59 74 C55 77 54 83 54 91 L41 91 C41 79 35 75 33 61 C31 47 33 33 46 22 Z"/>
  <g fill="none" stroke="url(#g)" stroke-width="2.1" stroke-linecap="round">
    <path d="M40 30 C26 42 24 64 33 84"/>
    <path d="M35 34 C24 48 24 66 31 84" opacity="0.8"/>
  </g>
</svg>
