<svg width="64" height="64" viewBox="0 0 64 64" xmlns="http://www.w3.org/2000/svg" role="img" aria-label="Magdalene Medza">
  <defs>
    <linearGradient id="g" x1="0" y1="0" x2="1" y2="1">
      <stop offset="0" stop-color="#f0dd92"/>
      <stop offset="0.5" stop-color="#d4af37"/>
      <stop offset="1" stop-color="#a87f1f"/>
    </linearGradient>
  </defs>
  <circle cx="32" cy="32" r="31" fill="#4a0a78"/>
  <circle cx="32" cy="32" r="31" fill="none" stroke="#d4af37" stroke-width="1.5" opacity="0.55"/>
  <g fill="url(#g)">
    <path d="M34 15c-1-4 0-8 3-10 2 3 2 8-3 10z"/>
    <path d="M40 14c1-4 4-7 8-7-1 4-3 7-8 7z"/>
    <path d="M37 15c-3-3-4-7-3-11 4 2 6 7 3 11z" opacity="0.85"/>
  </g>
  <g fill="none" stroke="url(#g)" stroke-width="2.2" stroke-linecap="round" stroke-linejoin="round">
    <path d="M39 17c5 1 7 6 6 11c2 1 3 3 0 4c1 2 0 4-2 5c2 1 2 4-1 6c-2 2-5 2-7 1"/>
    <path d="M39 17c-9-3-17 3-18 14c-1 10 4 18 13 21" stroke-width="2.4"/>
    <path d="M33 21c-7 3-11 11-9 20" opacity="0.85"/>
    <path d="M29 27c-4 4-5 11-2 17" opacity="0.7"/>
  </g>
</svg>
